<?xml version="1.0" standalone="no"?>
<!DOCTYPE svg PUBLIC "-//W3C//DTD SVG 20010904//EN"
 "http://www.w3.org/TR/2001/REC-SVG-20010904/DTD/svg10.dtd">
<svg version="1.0" xmlns="http://www.w3.org/2000/svg"
 width="608.000000pt" height="608.000000pt" viewBox="0 0 608.000000 608.000000"
 preserveAspectRatio="xMidYMid meet">
<metadata>
Created by potrace 1.11, written by Peter Selinger 2001-2013
</metadata>
<g transform="translate(0.000000,608.000000) scale(0.100000,-0.100000)"
fill="#000000" stroke="none">
<path d="M1000 5456 c0 -406 3 -516 13 -517 6 0 120 -1 252 -1 l240 -1 3 517
c2 508 2 516 -18 516 -18 0 -19 -7 -19 -147 1 -171 -6 -292 -27 -448 -6 -49
-24 -135 -31 -155 -3 -8 -7 -21 -9 -29 -9 -47 -51 -135 -78 -167 -62 -71 -125
-47 -180 69 -37 79 -60 162 -76 277 -5 41 -13 91 -16 110 -2 19 -7 136 -9 260
-4 217 -5 225 -25 228 -20 3 -20 0 -20 -512z"/>
<path d="M2822 5100 c-220 -17 -455 -71 -575 -131 -38 -20 -89 -59 -133 -103
-117 -117 -128 -172 -140 -678 l-6 -298 616 0 616 0 0 -100 0 -100 -247 -1
c-137 -1 -581 -4 -988 -8 l-740 -7 -77 -27 c-316 -113 -471 -320 -559 -747
-22 -107 -24 -137 -24 -440 0 -348 3 -379 56 -594 34 -136 81 -259 130 -343
42 -71 162 -194 221 -225 122 -64 144 -69 328 -78 96 -5 243 -9 326 -9 l151
-1 6 212 c4 116 7 286 7 377 0 194 8 253 48 353 75 188 230 352 406 433 39 18
94 38 121 44 31 7 247 15 560 21 805 14 832 15 898 38 180 64 306 194 382 396
l25 66 0 688 c0 585 -2 697 -15 747 -50 189 -233 372 -449 446 -153 53 -292
71 -576 74 -140 2 -306 -1 -368 -5z m-212 -518 c97 -60 129 -198 67 -291 -119
-179 -397 -101 -397 113 0 84 80 192 155 210 46 10 131 -5 175 -32z"/>
<path d="M895 4871 c-3 -2 -4 -235 -4 -517 -1 -506 0 -514 19 -514 19 0 20 7
21 103 4 516 98 880 218 842 63 -20 128 -159 157 -335 4 -25 9 -54 11 -65 15
-89 26 -263 27 -418 0 -122 1 -128 21 -125 18 3 20 11 21 88 1 88 13 286 19
330 2 14 6 52 10 85 4 32 9 68 11 80 19 99 29 140 51 204 64 190 144 219 212
79 66 -136 101 -377 101 -700 0 -162 1 -168 20 -168 20 0 20 5 18 517 l-3 518
-463 0 c-255 0 -465 -2 -467 -4z"/>
<path d="M4428 3499 c-4 -390 -5 -406 -27 -473 -58 -177 -150 -310 -281 -411
-63 -48 -108 -72 -213 -114 l-75 -30 -673 -10 c-639 -9 -677 -10 -739 -30
-178 -56 -316 -186 -396 -372 -27 -62 -28 -71 -37 -334 -4 -148 -6 -470 -3
-715 4 -373 8 -454 21 -500 55 -182 220 -346 427 -424 150 -57 238 -68 574
-73 434 -7 634 13 864 88 132 43 252 133 303 228 49 89 57 155 64 539 l6 352
-611 0 -612 0 0 105 0 105 964 0 964 0 88 26 c252 73 434 243 523 490 17 45
43 145 58 221 28 136 28 143 28 498 0 356 -1 361 -28 490 -81 378 -205 578
-422 681 -38 19 -92 38 -120 44 -27 6 -184 13 -347 17 l-297 6 -3 -404z m-619
-2597 c39 -18 100 -77 112 -110 14 -36 11 -150 -5 -181 -8 -15 -33 -44 -55
-64 -87 -78 -203 -74 -289 13 -68 68 -86 141 -53 216 57 129 175 180 290 126z"/>
</g>
</svg>
