<?xml version="1.0" encoding="utf-8"?>
<svg width="369px" height="344px" viewBox="0 0 369 344" version="1.1" xmlns:xlink="http://www.w3.org/1999/xlink" xmlns="http://www.w3.org/2000/svg">
  <desc>Created with Lunacy</desc>
  <defs>
    <path d="M0 0L144.375 0L144.375 165L0 165L0 0Z" id="path_1" />
    <path d="M0 0L106.5 0L106.5 142L0 142L0 0Z" id="path_2" />
    <path d="M0 0L145.25 0L145.25 166L0 166L0 0Z" id="path_3" />
    <clipPath id="mask_1">
      <use xlink:href="#path_1" />
    </clipPath>
    <clipPath id="mask_2">
      <use xlink:href="#path_2" />
    </clipPath>
    <clipPath id="mask_3">
      <use xlink:href="#path_3" />
    </clipPath>
  </defs>
  <g id="python-brands" transform="translate(92 178.20001)">
    <path d="M0 0L144.375 0L144.375 165L0 165L0 0Z" id="Background" fill="none" stroke="none" />
    <g clip-path="url(#mask_1)">
      <path d="M54.0764 69.642L88.4944 69.642C98.0657 69.642 105.703 61.7465 105.703 52.143L105.703 19.3041C105.703 9.95842 97.8401 2.96526 88.4944 1.38616C76.9573 -0.515208 64.4211 -0.418529 54.0764 1.41838C39.51 3.99651 36.8674 9.37835 36.8674 19.3364L36.8674 32.4526L71.3176 32.4526L71.3176 36.8354L23.9446 36.8354C13.9221 36.8354 5.15649 42.8617 2.41723 54.3022C-0.740969 67.4184 -0.869875 75.6039 2.41723 89.3002C4.86645 99.4838 10.6995 106.767 20.7219 106.767L32.5491 106.767L32.5491 91.0405C32.5491 79.6645 42.3782 69.642 54.0764 69.642ZM45.4397 17.1449C45.4397 20.7543 48.3401 23.6869 51.9172 23.6869C55.4944 23.6869 58.3948 20.7543 58.3948 17.1449C58.3948 13.5356 55.4622 10.5707 51.9172 10.5707C48.3401 10.5707 45.4719 13.5033 45.4397 17.1449ZM141.733 54.3022C139.251 44.3442 134.546 36.8354 124.524 36.8354L111.601 36.8354L111.601 52.1108C111.601 63.9702 101.546 73.9604 90.0735 73.9604L55.6555 73.9604C46.2454 73.9604 38.4465 82.017 38.4465 91.4594L38.4465 124.266C38.4465 133.612 46.5676 139.09 55.6555 141.765C66.5481 144.955 77.0217 145.536 90.0735 141.765C98.7424 139.251 107.282 134.192 107.282 124.266L107.282 111.15L72.8967 111.15L72.8967 106.767L124.524 106.767C134.546 106.767 138.252 99.7738 141.733 89.3002C145.342 78.5043 145.181 68.1274 141.733 54.3022ZM98.7102 126.425C98.7102 122.816 95.8098 119.883 92.2327 119.883C88.6878 119.883 85.7874 122.784 85.7551 126.425C85.7551 130.035 88.6878 132.999 92.2327 132.999C95.8098 132.999 98.7102 130.067 98.7102 126.425Z" transform="translate(-0.00024414062 10.312073)" id="Shape" fill="#FFFFFF" fill-opacity="0.7490196" fill-rule="evenodd" stroke="none" />
    </g>
  </g>
  <g id="java-brands" transform="translate(261.99988 36.200012)">
    <path d="M0 0L106.5 0L106.5 142L0 142L0 0Z" id="Background" fill="none" stroke="none" />
    <g clip-path="url(#mask_2)">
      <path d="M47.6503 69.9624C49.5035 72.5984 51.3335 75.2014 52.5246 77.8781C39.0734 65.7305 29.2 55.0527 35.8285 45.0961C39.0609 40.2613 44.1892 36.249 49.3797 32.1882C59.8208 24.0194 70.5134 15.6538 66.5304 0C66.5304 0 81.274 14.7547 52.5246 37.4414C34.6865 51.5229 41.3043 60.9359 47.6503 69.9624ZM84.2786 29.0179C82.9298 29.3684 36.0569 41.5486 58.9312 67.8937C65.7816 75.7703 57.1285 82.8703 57.1285 82.8703C57.1285 82.8703 74.5179 73.8844 66.5304 62.6519C66.2115 62.2038 65.8958 61.7652 65.5859 61.3349C58.6484 51.6993 54.6798 46.1872 84.3082 29.0101C84.3082 29.0102 84.2982 29.0128 84.2786 29.0179ZM82.0617 104.753C82.2782 104.538 82.4648 104.296 82.6164 104.032C109.269 90.1922 96.9273 76.8797 88.3296 78.6824C87.2919 78.8769 86.2716 79.1551 85.2789 79.5144C85.8415 78.7141 86.6349 78.1046 87.5531 77.7672C104.554 71.7766 117.645 95.4062 82.0617 104.753ZM76.2097 86.7809C78.9277 84.9226 82.6995 83.3141 82.6995 83.3141C82.6995 83.3141 71.9663 85.2555 61.2886 86.143C48.2257 87.2246 34.1921 87.4465 27.1476 86.5035C10.4792 84.2848 36.2999 78.1555 36.2999 78.1555C36.2999 78.1555 26.2878 77.4898 13.946 83.425C-0.614509 90.4695 50.0007 93.6867 76.2097 86.7809ZM33.5265 99.7328C45.5355 100.981 55.0484 101.064 71.4672 97.9023C73.1525 99.476 75.1448 100.685 77.3191 101.452C43.6773 111.298 6.2359 102.257 30.3093 94.2691C30.3093 94.2691 24.2355 98.7621 33.5265 99.7328ZM74.7675 116.623C46.9777 128.521 11.866 115.93 33.6929 109.828C33.6929 109.828 28.257 112.99 37.548 114.044C48.8082 115.32 54.5492 115.153 66.9464 112.796C69.4409 114.29 72.0572 115.57 74.7675 116.623ZM95.6959 121.31C95.6959 121.31 99.7174 124.611 91.2861 127.19C75.2279 132.043 24.5018 133.513 10.4127 127.384C5.3373 125.193 14.8502 122.114 17.8455 121.477C20.9518 120.811 22.7545 120.922 22.7545 120.922C17.1244 116.956 -13.6607 128.715 7.1123 132.071C63.757 141.279 110.395 127.939 95.6959 121.31ZM83.5593 136.786C61.7329 140.891 34.8035 140.419 18.8561 137.785C18.9266 137.815 22.3076 140.486 38.9347 141.556C64.5058 143.193 103.778 140.641 104.693 128.549C104.693 128.549 102.918 133.125 83.5593 136.786Z" transform="translate(0.81970215 0)" id="Shape" fill="#FFFFFF" fill-opacity="0.7490196" fill-rule="evenodd" stroke="none" />
    </g>
  </g>
  <g id="js-brands">
    <path d="M0 0L145.25 0L145.25 166L0 166L0 0Z" id="Background" fill="none" stroke="none" />
    <g clip-path="url(#mask_3)">
      <path d="M0 0L0 145.25L145.25 145.25L145.25 0L0 0ZM86.4691 119.928C90.457 127.839 98.6598 133.87 111.337 133.87C124.273 133.87 133.935 127.126 133.935 114.871C133.935 103.458 127.418 98.368 115.811 93.4074L112.407 91.9484C106.538 89.3871 104.009 87.7336 104.009 83.6484C104.009 80.3414 106.538 77.8125 110.526 77.8125C114.449 77.8125 116.978 79.466 119.313 83.6484L129.947 76.8398C125.473 68.9289 119.248 65.9137 110.559 65.9137C98.4004 65.9137 90.5867 73.6949 90.5867 83.9402C90.5867 95.0609 97.1035 100.346 106.96 104.528L110.364 105.987C116.621 108.743 120.318 110.396 120.318 115.065C120.318 118.988 116.686 121.809 111.045 121.809C104.334 121.809 100.508 118.275 97.5898 113.509L86.4691 119.928ZM79.0445 113.282C79.0445 127.418 70.7445 133.87 58.6512 133.87C47.725 133.87 41.4027 128.229 38.1606 121.387L49.2813 114.676C51.4211 118.47 53.3664 121.679 58.0676 121.679C62.5418 121.679 65.3949 119.929 65.3949 113.087L65.3949 66.6918L79.0445 66.6918L79.0445 113.282Z" transform="translate(0 10.375)" id="Shape" fill="#FFFFFF" fill-opacity="0.7490196" fill-rule="evenodd" stroke="none" />
    </g>
  </g>
</svg>